<?xml version="1.0" encoding="UTF-8"?>
<svg version="1.1" xmlns="http://www.w3.org/2000/svg" width="1390" height="996">
<path d="M0 0 C5.73135507 4.74139374 9.39436984 10.0865391 13.22265625 16.40625 C15.42478415 19.61990478 17.96819754 21.76909413 20.9609375 24.21875 C33.46088166 35.13824145 39.90219233 51.02731498 41.27734375 67.27734375 C41.62939725 78.89510937 38.5561945 89.80852162 35.02734375 100.78125 C34.33921482 102.93721287 33.68573609 105.10452589 33.06640625 107.28125 C28.19239261 124.26951332 17.84647322 143.13194688 2.125 152.5 C-1 154 -1 154 -3 154 C-3.0928125 155.8253125 -3.0928125 155.8253125 -3.1875 157.6875 C-3.61589101 160.70765661 -4.12403393 162.21591092 -5.6875 164.9375 C-10.26605445 167.78829805 -14.30980599 167.51457064 -19.625 167.46875 C-24.01006185 168.15899122 -25.1827572 169.63035665 -28 173 C-29.27617188 174.49273437 -29.27617188 174.49273437 -30.578125 176.015625 C-31.46986867 177.09282491 -32.36046085 178.17097891 -33.25 179.25 C-37.8823147 184.80640006 -42.76619336 189.99880699 -48 195 C-36.91694743 214.66006459 -15.33771485 225.56907817 3.6640625 236.1171875 C7 238 7 238 10 240 C10 240.66 10 241.32 10 242 C11.258125 242.350625 12.51625 242.70125 13.8125 243.0625 C23.80954817 246.41574186 32.01025006 253.32400089 40 260 C40.99773437 260.77730469 40.99773437 260.77730469 42.015625 261.5703125 C62.42274978 278.07851507 73.79067704 305.17485807 76.80151367 330.71704102 C78.65744742 352.06370332 76.01117839 371.27768633 67.7421875 391 C66.810426 394.76627807 67.46082391 396.64968825 68.6875 400.3125 C74.06647326 418.12906524 74.54515654 437.50682301 75 456 C75.061875 457.91619141 75.061875 457.91619141 75.125 459.87109375 C75.43689093 477.98026107 75.01876801 497.1454283 70.23339844 514.68505859 C68.37568788 521.54549062 69.83768659 524.97663591 73.1875 531.0625 C103.10822715 588.95193161 95.60621748 678.8559645 81.7902832 739.85766602 C80.29704174 746.46183158 79.03616179 753.07178113 78.07592773 759.77539062 C77.47985244 763.56641028 76.81140977 766.29144668 74 769 C73.01 769 72.02 769 71 769 C70.8691645 763.07725912 71.34703652 757.495355 72.20703125 751.640625 C72.46570533 749.80157757 72.72390499 747.96246336 72.98168945 746.12329102 C73.11757477 745.16544708 73.25346008 744.20760315 73.39346313 743.22073364 C76.36017589 722.18842328 78.60131134 701.19208354 80 680 C80.07057617 678.95489258 80.14115234 677.90978516 80.21386719 676.83300781 C83.11473082 631.93868967 87.15935201 566.03039551 59.78515625 527.1875 C58.5484888 523.74205834 59.38988817 520.51360073 60 517 C60.24162237 515.45474454 60.48113185 513.90915752 60.71875 512.36328125 C60.84596436 511.55004395 60.97317871 510.73680664 61.10424805 509.89892578 C62.88457627 498.26364063 63.74073592 486.76194703 64 475 C64.03287109 473.71512695 64.03287109 473.71512695 64.06640625 472.40429688 C64.35514504 459.55542058 63.8308535 446.76329615 63.125 433.9375 C63.08579437 433.19900818 63.04658875 432.46051636 63.00619507 431.699646 C62.4826155 422.03300262 61.54305502 412.56599443 60 403 C57.0870098 402.76470588 57.0870098 402.76470588 55.125 404 C52.60272655 405.18695221 50.75481627 405.15304535 48 405 C48.57153416 400.873078 49.93581153 398.2294303 52.1875 394.75 C66.63976075 370.41559792 67.758533 340.88668329 61.49609375 313.82226562 C55.74496385 291.39285901 44.00707878 268.91389279 23.84765625 256.57421875 C15.95431063 252.21068201 8.6015154 249.94727857 -0.41796875 249.75390625 C-1.66408936 249.72256592 -2.91020996 249.69122559 -4.1940918 249.65893555 C-5.5119165 249.62711182 -6.82974121 249.59528809 -8.1875 249.5625 C-49.69517301 248.3720908 -49.69517301 248.3720908 -60.62109375 237.3671875 C-64.7530733 232.78931088 -67 229.33148127 -67 223 C-62.76343318 223.49584603 -61.08191155 224.55406303 -58.3125 227.75 C-49.55088183 236.97449611 -37.49513308 239.73809854 -25.11450195 240.07958984 C-22.05488704 240.09786505 -18.99705758 240.08759416 -15.9375 240.0625 C-14.88111328 240.05798828 -13.82472656 240.05347656 -12.73632812 240.04882812 C-10.15749092 240.03715918 -7.57877706 240.02078885 -5 240 C-6.00417969 239.52691406 -7.00835938 239.05382812 -8.04296875 238.56640625 C-21.53410205 232.09285163 -33.13826515 224.40104137 -44 214 C-44.82113281 213.25363281 -45.64226562 212.50726563 -46.48828125 211.73828125 C-63.04930031 196.15598494 -76.28113905 171.48464764 -77.30078125 148.46484375 C-77.35534955 144.96685506 -77.23483741 141.49124953 -77 138 C-75.68 137.67 -74.36 137.34 -73 137 C-71.82569299 140.3272032 -70.81185734 143.64513397 -69.9921875 147.07421875 C-67.90076353 155.78264686 -65.4066245 164.10737732 -61.9375 172.375 C-61.60927246 173.16479248 -61.28104492 173.95458496 -60.94287109 174.76831055 C-59.09569994 179.02750175 -57.12898309 182.50167146 -54 186 C-50.38437727 183.28513346 -47.63966036 180.50632963 -44.875 176.9375 C-31.46017008 160.21952101 -31.46017008 160.21952101 -25 158 C-22.203125 157.8046875 -22.203125 157.8046875 -19.25 157.875 C-18.26515625 157.89304688 -17.2803125 157.91109375 -16.265625 157.9296875 C-15.51796875 157.95289063 -14.7703125 157.97609375 -14 158 C-13.855625 156.989375 -13.71125 155.97875 -13.5625 154.9375 C-12.0210938 149.50431643 -7.39666511 147.12226943 -3 144 C11.49964115 133.20239489 20.68698998 115.52850446 25.08984375 98.35546875 C25.94995944 95.18448429 27.05347376 92.24343636 28.25 89.1875 C32.20356428 77.42093965 31.00361097 64.24755368 26 53 C16.05085827 34.00005891 -2.84294884 10.6586538 -23.75 2.9375 C-42.39937222 -1.47547949 -61.05103472 4.33086314 -77 14 C-89.01911256 21.897906 -98.61352678 31.5714835 -106.25 43.75 C-107.21413818 45.25880737 -107.21413818 45.25880737 -108.19775391 46.7980957 C-110.14574997 49.85686705 -112.0756219 52.92632656 -114 56 C-114.55204102 56.87769043 -115.10408203 57.75538086 -115.67285156 58.65966797 C-119.49443504 64.74523944 -123.25620775 70.86633489 -127 77 C-127.66290039 78.08474609 -128.32580078 79.16949219 -129.00878906 80.28710938 C-132.97856816 86.78664572 -136.93020403 93.29677582 -140.86216736 99.81925964 C-143.22950467 103.74109033 -145.63014181 107.6410706 -148.04296875 111.53515625 C-149.25825913 113.52316454 -150.47312719 115.51143108 -151.6875 117.5 C-152.25855469 118.40741943 -152.82960938 119.31483887 -153.41796875 120.24975586 C-153.92328125 121.08514893 -154.42859375 121.92054199 -154.94921875 122.78125 C-155.39612061 123.50376953 -155.84302246 124.22628906 -156.3034668 124.97070312 C-157.24017474 127.02076198 -157.24017474 127.02076198 -156.25512695 129.1496582 C-154.64084985 131.52946878 -152.79470703 132.95557713 -150.5 134.6875 C-141.16179991 141.97749459 -132.40013398 149.19973205 -127 160 C-126.92328238 161.39512413 -126.8629694 162.79117991 -126.8125 164.1875 C-126.34894624 168.8678976 -124.75055752 170.93164721 -121.56640625 174.25390625 C-117.9927602 178.23749674 -116.13734663 182.37930972 -115.6875 187.6875 C-116 191 -116 191 -116.5 193.375 C-116.98805619 195.93729502 -116.90367348 197.9131631 -116.75 200.5 C-116.75559379 203.8562725 -116.97713289 204.95934735 -118.6875 208 C-124.61312142 211.57773368 -131.10486382 211.89263537 -137.8125 210.35546875 C-149.03877611 206.09777596 -159.30218179 198.77039308 -169.46777344 192.47070312 C-171.81030383 191.01961185 -174.1543309 189.57101185 -176.5 188.125 C-177.23669922 187.67068604 -177.97339844 187.21637207 -178.73242188 186.74829102 C-184.65724299 183.13075765 -190.70071542 179.9273146 -197 177 C-196.38511719 177.90621094 -195.77023437 178.81242188 -195.13671875 179.74609375 C-183.05151054 197.8328507 -183.05151054 197.8328507 -185 209 C-187.92682927 214.46341463 -187.92682927 214.46341463 -191 216 C-195.58824737 216.64235463 -199.00959829 216.53481692 -203.125 214.3125 C-205.89560448 211.63224132 -207.39235639 208.47780711 -209.125 205.0625 C-212.91491628 197.64999267 -217.92806079 191.88342599 -223.47021484 185.72412109 C-225.92508283 182.95739947 -228.27379389 180.10481816 -230.625 177.25 C-233.6988696 173.52095828 -233.6988696 173.52095828 -237 170 C-256.3414697 179.09887799 -273.40063091 191.33103665 -290.3359375 204.30859375 C-291.35880859 205.08408569 -291.35880859 205.08408569 -292.40234375 205.87524414 C-293.68678099 206.85176617 -294.96333289 207.83877662 -296.23046875 208.83764648 C-300.46682191 212.04658838 -300.46682191 212.04658838 -303.4140625 211.7890625 C-303.93742188 211.52867187 -304.46078125 211.26828125 -305 211 C-304.56596843 205.93492486 -303.33421374 203.72720977 -299.703125 200.21484375 C-298.38828125 198.92416992 -298.38828125 198.92416992 -297.046875 197.60742188 C-296.12390625 196.72634766 -295.2009375 195.84527344 -294.25 194.9375 C-292.88875 193.61008789 -292.88875 193.61008789 -291.5 192.25585938 C-289.80155286 190.60086666 -288.09800767 188.95107759 -286.38769531 187.30834961 C-284.67726849 185.65476212 -282.98597907 183.98128964 -281.30761719 182.29516602 C-279 180 -279 180 -277.25 178.625 C-275.1630025 175.91190326 -274.91462829 173.31242227 -275 170 C-277.34759893 152.72349527 -287.27759607 140.11274806 -299.6875 128.5625 C-302.34012444 125.99666899 -302.92876766 125.38465462 -303.625 121.625 C-303 119 -303 119 -301 117 C-298.75 116.4375 -298.75 116.4375 -296 117 C-294.69140625 118.390625 -294.69140625 118.390625 -293.3125 120.1875 C-288.41384649 126.42444545 -280.64189703 129.44419134 -273 131 C-268.19296351 131.54975174 -263.36535225 131.82693127 -258.53710938 132.12304688 C-251.11687534 132.66456297 -245.19119339 133.52573225 -239.1484375 138.2109375 C-236.61084782 141.50519029 -235.61686446 144.66694374 -234.625 148.625 C-231.53133934 159.47623045 -226.03155671 167.14092619 -218.33837891 175.31176758 C-209.92982346 184.26072967 -202.78265507 193.51877493 -197.33984375 204.55078125 C-196.23730973 207.11886834 -196.23730973 207.11886834 -194 208 C-194.27566937 201.29948717 -195.7701557 196.63185427 -199.25 190.9375 C-199.65532959 190.24358154 -200.06065918 189.54966309 -200.47827148 188.8347168 C-202.57846586 185.26216059 -204.7803663 181.7718727 -207.0625 178.3125 C-209.89308579 173.4731114 -209.89308579 173.4731114 -209 170 C-207.24969953 167.79309941 -205.81163929 167.13310884 -203.046875 166.6796875 C-189.58084959 165.97342743 -176.15208432 176.75323628 -165.375 183.75 C-158.45893946 188.1933814 -151.51839958 192.57332048 -144.4375 196.75 C-143.75413574 197.15573242 -143.07077148 197.56146484 -142.36669922 197.97949219 C-138.99531405 199.95003659 -135.67602341 201.67352706 -132 203 C-136.49825237 197.47124529 -141.09084513 193.06108554 -146.9375 189 C-147.69023193 188.46600586 -148.44296387 187.93201172 -149.21850586 187.38183594 C-158.99147526 180.50452481 -168.98467526 173.94075932 -178.96899414 167.37597656 C-181 166 -181 166 -182 165 C-182.04063832 163.33382885 -182.042721 161.66611905 -182 160 C-179.18757776 159.11764475 -177.00661778 158.57847923 -174.21252441 159.74850464 C-172.18753132 160.97298953 -170.2585472 162.28347531 -168.328125 163.65234375 C-167.60566589 164.14529434 -166.88320679 164.63824493 -166.13885498 165.14613342 C-163.83112551 166.72732724 -161.54105346 168.33226799 -159.25 169.9375 C-157.7249867 170.98392215 -156.19895375 172.02885996 -154.671875 173.07226562 C-147.4599507 178.02740992 -140.40587997 183.07165968 -133.67871094 188.67407227 C-132.22574255 190.10330427 -132.22574255 190.10330427 -131 190 C-136.68509001 184.6513745 -142.45757223 179.53461624 -148.625 174.75 C-149.79689749 173.83596633 -150.96877173 172.92190285 -152.140625 172.0078125 C-154.18637982 170.41272607 -156.23322275 168.81914763 -158.28320312 167.22949219 C-160.65969772 165.3766814 -163.01838194 163.50299933 -165.375 161.625 C-166.13119629 161.04202148 -166.88739258 160.45904297 -167.66650391 159.85839844 C-168.36179199 159.29926758 -169.05708008 158.74013672 -169.7734375 158.1640625 C-170.70808838 157.42857178 -170.70808838 157.42857178 -171.66162109 156.67822266 C-173.47179194 154.40840974 -173.24730747 152.82337707 -173 150 C-170.95703125 149.1796875 -170.95703125 149.1796875 -168 149 C-165.29968118 150.35932249 -163.03604376 152.2351921 -160.6875 154.125 C-159.99398437 154.66471436 -159.30046875 155.20442871 -158.5859375 155.76049805 C-156.37626412 157.489667 -154.18668114 159.24187169 -152 161 C-151.28150879 161.57282715 -150.56301758 162.1456543 -149.82275391 162.73583984 C-142.84106306 168.30753718 -135.90139061 173.92027621 -129.28515625 179.92578125 C-128.15128662 181.10688844 -128.15128662 181.10688844 -127 181 C-135.92566689 170.18178482 -146.92759937 162.20617204 -158.10546875 153.89453125 C-158.73694824 153.42176758 -159.36842773 152.94900391 -160.01904297 152.46191406 C-161.41662103 151.43052419 -162.82864162 150.4185665 -164.25048828 149.42089844 C-164.97864746 148.90172852 -165.70680664 148.38255859 -166.45703125 147.84765625 C-167.12323486 147.38238525 -167.78943848 146.91711426 -168.47583008 146.43774414 C-170 145 -170 145 -170.5 141.625 C-170.335 140.75875 -170.17 139.8925 -170 139 C-167.69638293 138.17436733 -166.50071396 137.78882933 -164.203125 138.7578125 C-156.13481434 144.40562996 -148.58098602 150.72136345 -141 157 C-156.63170268 136.7393193 -180.75501922 123.77338598 -203.42919922 113.03149414 C-204.68202081 112.43777809 -205.93478727 111.8439457 -207.1875 111.25 C-207.81255432 110.95382782 -208.43760864 110.65765564 -209.081604 110.35250854 C-220.55930113 104.89307196 -231.3568374 98.61034215 -242.10058594 91.82373047 C-260.32516044 80.30495602 -260.32516044 80.30495602 -279.375 70.25 C-279.99745605 69.95109863 -280.61991211 69.65219727 -281.26123047 69.34423828 C-290.94882137 64.94502989 -300.2846789 63.4744796 -310.875 63.5625 C-312.12716309 63.56572266 -313.37932617 63.56894531 -314.66943359 63.57226562 C-328.98322807 63.71888997 -343.23022923 65.16183793 -357.46435547 66.57641602 C-366.67776128 67.48653008 -375.72982867 68.34790322 -385 68 C-385.45320559 104.38462658 -378.57188471 139.58232667 -369.60028076 174.65118408 C-369.014178 176.94452345 -368.43496017 179.2395277 -367.85595703 181.53466797 C-362.59244561 202.23377128 -355.40636605 221.49722215 -346.6789856 240.97454834 C-328.51803172 281.55256456 -317.93621088 323.60029695 -315 368 C-314.86754883 369.92755127 -314.86754883 369.92755127 -314.73242188 371.89404297 C-313.89404836 385.10015732 -313.84702126 398.29399514 -313.86962891 411.52294922 C-313.87497144 415.2301852 -313.86966034 418.937299 -313.86328125 422.64453125 C-313.85964961 434.14155042 -313.9685524 445.62122654 -314.4453125 457.109375 C-314.48405487 458.0704718 -314.52279724 459.0315686 -314.56271362 460.02178955 C-314.62472458 461.34083282 -314.62472458 461.34083282 -314.68798828 462.68652344 C-314.7238504 463.45140076 -314.75971252 464.21627808 -314.79666138 465.0043335 C-315 467 -315 467 -316 470 C-317.32 470 -318.64 470 -320 470 C-322.36389345 458.34852516 -324.29939827 446.7133252 -325.51171875 434.8828125 C-325.63905396 433.64313217 -325.76638916 432.40345184 -325.89758301 431.12620544 C-327.4341397 415.47037986 -328.1982223 399.76974345 -329 384.0625 C-331.03486951 340.23906595 -331.03486951 340.23906595 -338 297 C-338.27505371 295.76854248 -338.27505371 295.76854248 -338.55566406 294.51220703 C-341.56265112 281.60658489 -346.5501884 269.69553438 -351.90576172 257.62548828 C-375.3652242 204.71089749 -396.47070934 144.21096512 -396.31567383 85.75683594 C-396.3124492 83.20987501 -396.33632595 80.66401131 -396.36132812 78.1171875 C-396.36359599 76.47916811 -396.36430701 74.84114564 -396.36328125 73.203125 C-396.372491 72.45105774 -396.38170074 71.69899048 -396.39118958 70.9241333 C-396.35192365 66.47644981 -395.9716277 63.40334409 -393 60 C-390.65991211 59.14672852 -390.65991211 59.14672852 -387.83984375 58.81640625 C-386.23278564 58.60975342 -386.23278564 58.60975342 -384.59326172 58.39892578 C-383.40748535 58.26728027 -382.22170898 58.13563477 -381 58 C-379.04122869 57.74422819 -377.08246351 57.48840519 -375.12393188 57.23080444 C-372.32119308 56.86851571 -369.51573309 56.53089393 -366.7097168 56.19506836 C-364.56832584 55.93819884 -362.42771563 55.67542917 -360.28710938 55.41210938 C-312.48093631 49.59226936 -278.93678654 54.98002818 -238.99658203 81.32128906 C-223.45039062 91.55929109 -207.77053509 100.33402596 -190.84228516 108.13232422 C-183.86093017 111.40422595 -177.64987453 115.03894091 -171.35449219 119.47631836 C-169.18757063 121.1810994 -169.18757063 121.1810994 -167 121 C-165.29830765 118.55772068 -165.29830765 118.55772068 -163.54296875 115.39453125 C-163.20378418 114.80781143 -162.86459961 114.22109161 -162.51513672 113.61659241 C-161.78272592 112.34846171 -161.05355416 111.07845606 -160.32723999 109.80682373 C-158.41132843 106.45435043 -156.47016973 103.11654526 -154.53125 99.77734375 C-154.14357956 99.10842102 -153.75590912 98.43949829 -153.35649109 97.75030518 C-148.57828098 89.52157505 -143.56354546 81.44367732 -138.5 73.38818359 C-137.02507795 71.03992716 -135.55877796 68.68646977 -134.09375 66.33203125 C-128.44309054 57.28127787 -122.6389983 48.33492656 -116.75 39.4375 C-116.1005542 38.45031982 -115.4511084 37.46313965 -114.78198242 36.44604492 C-99.75395616 13.87633488 -78.18465635 -3.938928 -50.9453125 -9.52734375 C-32.73934797 -11.70845435 -15.21923619 -11.27060275 0 0 Z M-275 141 C-274.60167969 141.76441406 -274.20335937 142.52882812 -273.79296875 143.31640625 C-270.03292472 150.91883104 -267.97893928 157.65032024 -266.640625 165.98046875 C-266.26594018 169.09736442 -266.26594018 169.09736442 -264 171 C-263.0821875 170.46890625 -262.164375 169.9378125 -261.21875 169.390625 C-254.89295913 165.7443778 -248.58643285 162.16148777 -242 159 C-242.45098238 157.06077578 -242.91105559 155.12366406 -243.375 153.1875 C-243.63023437 152.10855469 -243.88546875 151.02960938 -244.1484375 149.91796875 C-244.88732881 146.84466657 -244.88732881 146.84466657 -247 144 C-255.93514005 140.64932248 -265.58038894 140.83882795 -275 141 Z " fill="#4A9CBD" transform="translate(941,72)"/>
<path d="M0 0 C19.47 0 38.94 0 59 0 C62.07541304 6.15082608 64.98164166 12.08980368 67.50390625 18.44140625 C67.81979706 19.2263295 68.13568787 20.01125275 68.46115112 20.81996155 C69.14247256 22.51403885 69.82194732 24.20885982 70.49972534 25.90435791 C71.96978545 29.58117558 73.4494703 33.25409584 74.92866516 36.92724609 C75.71773731 38.88670973 76.50637511 40.84634831 77.29460144 42.80615234 C81.54901243 53.3794915 85.84851793 63.93433233 90.15621948 74.48605347 C91.39557325 77.52228569 92.63351427 80.55909097 93.87133789 83.59594727 C99.51343339 97.42557407 105.23729049 111.22022142 111 125 C113.26995864 121.59506203 114.73579423 118.05071208 116.28125 114.28515625 C116.6066275 113.49948776 116.932005 112.71381927 117.26724243 111.90434265 C118.34810712 109.29173656 119.42414373 106.67717211 120.5 104.0625 C121.26136894 102.21834724 122.02292827 100.37427308 122.78466797 98.53027344 C125.19563862 92.68925431 127.59890379 86.84508419 130 81 C130.38595337 80.06057556 130.77190674 79.12115112 131.16955566 78.15325928 C141.85663333 52.13331178 152.44614058 26.07424092 163 0 C182.14 0 201.28 0 221 0 C221 1.98 221 3.96 221 6 C220.14277344 6.04898438 219.28554688 6.09796875 218.40234375 6.1484375 C209.47622705 6.54595617 209.47622705 6.54595617 201 9 C199.51953703 11.36723913 199.51953703 11.36723913 199 14 C198.67 14.99 198.34 15.98 198 17 C197.90131402 19.27949338 197.86495953 21.56182263 197.85955811 23.84344482 C197.85658698 24.54344014 197.85361586 25.24343546 197.8505547 25.96464276 C197.84186623 28.31595878 197.84035933 30.66722388 197.83886719 33.01855469 C197.83423908 34.70220041 197.82921443 36.38584508 197.82382202 38.06948853 C197.81069438 42.64814686 197.80425222 47.22679053 197.79981136 51.80546474 C197.79688091 54.66610092 197.79277613 57.52673309 197.78830719 60.38736725 C197.77463061 69.33774 197.76496503 78.28810358 197.7611053 87.23848605 C197.75662555 97.56995622 197.73908219 107.90129403 197.7101047 118.23272395 C197.6884843 126.21839314 197.67840081 134.20402511 197.67706418 142.18972325 C197.67601631 146.95916279 197.67011239 151.72847793 197.65224457 156.49788666 C197.63575796 160.98601658 197.63361124 165.47392867 197.64238358 169.96207809 C197.64315366 171.60717986 197.63881494 173.25229335 197.62892532 174.89736557 C197.61619122 177.14804209 197.62208999 179.39794883 197.63250732 181.64862061 C197.63104076 182.90665874 197.6295742 184.16469688 197.6280632 185.46085739 C198.06902637 189.65681631 199.05343834 192.26749494 201 196 C205.31737062 198.99989219 209.19510261 199.44316522 214.375 199.6875 C216.24285156 199.78611328 216.24285156 199.78611328 218.1484375 199.88671875 C219.08945312 199.92410156 220.03046875 199.96148438 221 200 C221 201.98 221 203.96 221 206 C193.94 206 166.88 206 139 206 C139 204.02 139 202.04 139 200 C140.01320313 199.96261719 141.02640625 199.92523437 142.0703125 199.88671875 C143.42190939 199.82101612 144.77347029 199.75457029 146.125 199.6875 C146.79015625 199.66494141 147.4553125 199.64238281 148.140625 199.61914062 C152.7705156 199.36948966 156.15137606 198.61594873 160 196 C162.72769327 191.55809477 163.37264756 188.2259045 163.36076355 183.05239868 C163.36332682 182.37756955 163.3658901 181.70274041 163.36853105 181.00746191 C163.37344949 178.75944702 163.35700905 176.51211255 163.34057617 174.26416016 C163.33972948 172.64753231 163.34020587 171.0309033 163.34190369 169.41427612 C163.34276341 165.03450431 163.32514142 160.65497966 163.30418181 156.27526522 C163.28541116 151.6948653 163.28366426 147.11445954 163.28010559 142.5340271 C163.27078627 133.86434356 163.24617401 125.19477369 163.21605712 116.52514017 C163.18250961 106.65337901 163.16602622 96.78161238 163.15097082 86.9098084 C163.11962437 66.60647552 163.06686604 46.30324493 163 26 C162.66322078 26.87182167 162.32644156 27.74364334 161.9794569 28.64188385 C160.70462976 31.94114678 159.42924164 35.2401918 158.15349865 38.53910065 C157.60615044 39.95479818 157.05901263 41.37057709 156.5121069 42.78644562 C151.80263503 54.97796789 146.99206445 67.12660781 142.11749268 79.25314331 C139.78610723 85.05369267 137.4614112 90.85692194 135.13671875 96.66015625 C134.64896973 97.87755997 134.1612207 99.09496368 133.65869141 100.34925842 C127.4453593 115.86457011 121.28588757 131.40130777 115.125 146.9375 C114.55929677 148.36393274 113.99359244 149.79036503 113.42788696 151.21679688 C110.28414981 159.14409213 107.14149681 167.07181662 104 175 C103.01 175 102.02 175 101 175 C93.96407843 160.02855358 87.06803322 145.00294056 80.375 129.875 C74.41693858 116.40868004 68.39137529 102.97473225 62.3125 89.5625 C60.70952095 86.02479144 59.10665837 82.48703013 57.50390625 78.94921875 C57.11855713 78.09866913 56.73320801 77.24811951 56.33618164 76.37179565 C50.85292371 64.26478671 45.4124163 52.13884136 40 40 C39.59765137 39.10007324 39.19530273 38.20014648 38.78076172 37.27294922 C37.74547198 34.95463489 36.71519436 32.63418909 35.6875 30.3125 C35.15511719 29.11238281 34.62273438 27.91226563 34.07421875 26.67578125 C33 24 33 24 33 22 C32.34 21.67 31.68 21.34 31 21 C30.34686542 19.75362528 29.74987458 18.47737191 29.1875 17.1875 C27.35097359 13.41316816 25.66847499 11.21814767 22 9 C16.97829578 7.31785277 12.34121154 6.65528557 7.0625 6.375 C6.37865234 6.33632813 5.69480469 6.29765625 4.99023438 6.2578125 C3.32720487 6.16477588 1.66364153 6.08136213 0 6 C0 4.02 0 2.04 0 0 Z " fill="#8D8F90" transform="translate(528,544)"/>
<path d="M0 0 C2 1 2 1 2.66674805 2.87231445 C2.96125854 4.10534302 2.96125854 4.10534302 3.26171875 5.36328125 C4.53723171 10.69446306 5.82717224 16.0220829 7.11854553 21.34944153 C7.67614386 23.65874435 8.23039836 25.96885937 8.78001404 28.28007507 C12.74383068 44.94407445 17.37516613 61.25832043 22.77905273 77.51220703 C23.94535911 81.02366179 25.09378604 84.54061148 26.24023438 88.05859375 C31.97779036 105.54559152 38.17947394 122.81026502 46.25 139.375 C46.70834229 140.32358887 47.16668457 141.27217773 47.63891602 142.24951172 C52.28940262 151.76762827 57.31326424 161.06999681 62.49267578 170.30908203 C63.98321346 172.97003219 65.45859426 175.63900731 66.93359375 178.30859375 C88.0671736 216.2435454 115.1666014 250.18000256 145.75 280.875 C147.0810376 282.21304688 147.0810376 282.21304688 148.43896484 283.578125 C153.465596 288.59252133 158.59261308 293.40003761 164 298 C165.02127993 298.88881002 166.04214314 299.77809919 167.0625 300.66796875 C233.10656803 357.31480902 317.9949423 396.18125499 449.875 412.25 C450.55542358 412.29119965 451.23584717 412.33239929 451.93688965 412.37484741 C482.61179979 414.1825795 512.80183811 411.16314197 543 406 C543.73023376 405.87625 544.46046753 405.7525 545.21282959 405.625 C569.59353341 401.47520675 593.51685627 395.82771458 617 388 C621.83942919 387.06607507 621.83942919 387.06607507 625 388 C628.76285298 390.95996827 632.00972389 394.26215486 635 398 C635 398.66 635 399.32 635 400 C621.35008309 404.28737679 607.53755247 407.52289286 593.5625 410.5625 C592.45239563 410.80500488 591.34229126 411.04750977 590.19854736 411.29736328 C563.54617766 417.10219283 537.17517354 420.76929745 510 423 C508.42859253 423.14683228 508.42859253 423.14683228 506.82543945 423.29663086 C495.93154513 424.22934724 485.02711854 424.18608607 474.1003418 424.18530273 C470.73277787 424.18747085 467.36555237 424.20563126 463.99804688 424.22460938 C442.73048261 424.281786 421.73927234 422.82755917 400.75 419.375 C399.56857422 419.184254 399.56857422 419.184254 398.36328125 418.98965454 C333.6559979 408.49256308 274.23536565 387.03471244 218 353 C217.23478027 352.53996582 216.46956055 352.07993164 215.68115234 351.60595703 C194.69831747 338.95108905 175.38423149 324.1619007 157 308 C156.09636719 307.20980469 155.19273437 306.41960937 154.26171875 305.60546875 C147.58609187 299.62542094 141.20983699 293.33723887 134.85006714 287.02529907 C133.84241845 286.02569029 132.83329399 285.02756645 131.82254028 284.03109741 C125.88212457 278.16577802 120.32240654 272.14181067 115.10961914 265.60644531 C113.10341113 263.12776498 111.02283112 260.75397449 108.8828125 258.390625 C104.9615741 254.02163273 101.38125536 249.45607663 97.875 244.75 C97.23393311 243.89083984 96.59286621 243.03167969 95.93237305 242.14648438 C49.89881522 179.87276151 -3.57587557 80.45720029 0 0 Z " fill="#4A9CBC" transform="translate(177,553)"/>
<path d="M0 0 C7.71569687 -0.53663479 15.4265497 -0.90171209 23.15673828 -1.15356445 C25.7790078 -1.25859075 28.4000639 -1.401497 31.01806641 -1.58422852 C52.09203779 -3.01725857 52.09203779 -3.01725857 58.47439575 1.91043091 C62.88319868 6.83536913 65.84865675 12.45382291 68.69921875 18.38119507 C70.44409218 21.89407099 72.57596837 25.01093868 74.85546875 28.19140625 C75.92704224 29.76873535 75.92704224 29.76873535 77.02026367 31.37792969 C77.73545166 32.42883789 78.45063965 33.47974609 79.1875 34.5625 C79.98749359 35.7398358 80.78737624 36.91724699 81.5871582 38.09472656 C84.87144219 42.92942468 88.15822917 47.76241971 91.4453125 52.59521484 C93.86035687 56.14614307 96.27443475 59.69772654 98.6875 63.25 C99.07744141 63.82400543 99.46738281 64.39801086 99.86914062 64.9894104 C107.98699634 76.94395755 116.00129711 88.96525436 124 101 C124.33 84.17 124.66 67.34 125 50 C129.00947233 52.00473616 130.09486307 58.15075167 131.54538822 62.2212944 C135.14179264 73.29151665 134.87925678 84.18093596 134.68359375 95.703125 C134.67049879 98.00623043 134.66055312 100.30935569 134.65357971 102.61248779 C134.62716099 108.6034765 134.55867106 114.59323109 134.48065186 120.58374023 C134.40837011 126.72492794 134.37693091 132.86631982 134.34179688 139.0078125 C134.26726931 151.00574338 134.14818212 163.00276812 134 175 C128.48650689 169.54472961 128.48650689 169.54472961 126.5546875 166.55859375 C126.12792725 165.90777832 125.70116699 165.25696289 125.26147461 164.58642578 C124.80393799 163.87728027 124.34640137 163.16813477 123.875 162.4375 C122.81251898 160.81814288 121.74861923 159.19971606 120.68359375 157.58203125 C119.80743408 156.24906006 119.80743408 156.24906006 118.91357422 154.88916016 C115.30186458 149.43611449 111.61558485 144.0333742 107.9375 138.625 C107.11956139 137.42118845 106.30169091 136.21733061 105.48388672 135.01342773 C103.81883721 132.56244848 102.15343518 130.11170931 100.48779297 127.66113281 C96.88238679 122.35607286 93.28152788 117.04792797 89.68045044 111.7399292 C87.7038318 108.82648499 85.72689959 105.91325357 83.75 103 C82.95833184 101.83333435 82.16666517 100.66666768 81.375 99.5 C80.7871875 98.63375 80.7871875 98.63375 80.1875 97.75 C79 96 77.8125 94.25 76.625 92.5 C76.23320557 91.92262085 75.84141113 91.3452417 75.43774414 90.75036621 C74.64525571 89.58248424 73.85277526 88.41459686 73.06030273 87.2467041 C71.093774 84.34858739 69.12711148 81.45056165 67.16015625 78.55273438 C63.44675468 73.08163543 59.73478948 67.60957605 56.02722168 62.13452148 C54.2742609 59.54604928 52.52058155 56.95806431 50.7668457 54.37011719 C49.93038549 53.13533491 49.09427811 51.90031353 48.25854492 50.66503906 C47.10033715 48.95317092 45.94092015 47.2421277 44.78125 45.53125 C44.12189453 44.55736328 43.46253906 43.58347656 42.78320312 42.58007812 C41.23749207 40.34362216 39.63791745 38.16896268 38 36 C37.95315196 53.76843549 37.91794867 71.53685482 37.89637566 89.30533886 C37.88608996 97.55668904 37.87208177 105.80800072 37.84912109 114.05932617 C37.82910393 121.25631831 37.81626392 128.45328254 37.81182301 135.65030175 C37.80922965 139.45639365 37.80319143 143.26240574 37.78853989 147.06847191 C37.77482394 150.66107756 37.77080522 154.25357159 37.77378464 157.84620094 C37.77298403 159.7724412 37.76229652 161.6986697 37.75115967 163.62487793 C37.5995255 180.17745311 37.5995255 180.17745311 44 195 C49.88170589 199.75542178 56.64552148 200.15948817 64 201 C64 202.98 64 204.96 64 207 C43.54 207 23.08 207 2 207 C2 205.02 2 203.04 2 201 C2.85722656 200.90203125 3.71445312 200.8040625 4.59765625 200.703125 C13.97973858 199.55334077 13.97973858 199.55334077 22 195 C28.92859495 185.52799678 28.30967569 172.89995472 28.33813477 161.74731445 C28.34905034 160.2301174 28.36072419 158.71292565 28.37309265 157.19573975 C28.40338708 153.10302831 28.42056079 149.01037262 28.43330884 144.91757226 C28.44142647 142.35690182 28.45160741 139.79624695 28.46232414 137.23558617 C28.49496778 129.21215631 28.51890247 121.18876492 28.531138 113.16527778 C28.54542076 103.92255784 28.58941553 94.68059779 28.65863949 85.43812972 C28.71042466 78.27608386 28.73531078 71.11425438 28.73996013 63.95202416 C28.74335449 59.68096721 28.75815571 55.41068251 28.80124092 51.13982582 C28.8410295 47.12650778 28.84738243 43.11450044 28.82834053 39.1010437 C28.82707615 37.63167002 28.83771561 36.16222872 28.86135483 34.69304466 C29.19050767 25.39319318 29.19050767 25.39319318 24.667099 17.7071991 C21.35192835 15.00562979 17.84405631 12.98696478 14 11.125 C12.845 10.55007813 11.69 9.97515625 10.5 9.3828125 C6.9468884 7.97901618 3.78951854 7.37701843 0 7 C0 4.69 0 2.38 0 0 Z " fill="#4A9CBD" transform="translate(433,545)"/>
<path d="M0 0 C0.495 1.485 0.495 1.485 1 3 C-0.23046875 5.22265625 -0.23046875 5.22265625 -2.1875 8.0625 C-13.46386103 25.38678932 -20.94448241 45.65315087 -28 65 C-28.3398291 65.92893066 -28.6796582 66.85786133 -29.02978516 67.81494141 C-40.70558079 100.17325595 -48.47015121 134.67849388 -51 169 C-51.08612549 170.13300537 -51.17225098 171.26601074 -51.26098633 172.43334961 C-51.99469622 182.93984 -52.20257481 193.40716811 -52.1875 203.9375 C-52.18656342 204.79127228 -52.18562683 205.64504456 -52.18466187 206.52468872 C-52.04255564 266.62582359 -37.85977047 325.74638473 -12 380 C-11.56349121 380.92216309 -11.12698242 381.84432617 -10.67724609 382.79443359 C0.14682968 405.50781165 12.76612418 426.96342571 28 447 C28.45745605 447.60763184 28.91491211 448.21526367 29.38623047 448.84130859 C41.40269585 464.79701952 54.35427842 479.54139205 68.46484375 493.65014648 C70.37009504 495.5575894 72.26717613 497.47291467 74.1640625 499.38867188 C81.13922536 506.3955444 88.23184439 512.87264565 96 519 C97.10228043 519.93424618 98.19860507 520.87563112 99.28515625 521.828125 C119.32006131 539.29878764 142.07333758 553.66203063 165 567 C165.73653809 567.43022461 166.47307617 567.86044922 167.23193359 568.30371094 C200.00242919 587.3288661 234.34855904 600.27409197 271.17578125 608.9453125 C272.17992821 609.18278954 272.17992821 609.18278954 273.20436096 609.42506409 C276.43255664 610.18665715 279.66237565 610.93244589 282.8996582 611.6550293 C284.04909912 611.91968994 285.19854004 612.18435059 286.3828125 612.45703125 C287.90479248 612.7969812 287.90479248 612.7969812 289.45751953 613.14379883 C292.154822 614.05213758 293.27564224 614.773196 295 617 C296.14292832 619.38874799 297.1932028 621.73981034 298.1875 624.1875 C298.59645508 625.16879883 298.59645508 625.16879883 299.01367188 626.16992188 C299.68239798 627.77721092 300.34209925 629.38824962 301 631 C243.25608321 626.18177217 182.77888427 595.29491263 136 563 C135.27441895 562.50113281 134.54883789 562.00226562 133.80126953 561.48828125 C123.91551466 554.67142569 114.33833706 547.54822187 105 540 C104.05769531 539.24074219 103.11539063 538.48148438 102.14453125 537.69921875 C92.41010527 529.79087557 82.7823024 521.73857997 73.51171875 513.2890625 C71.75486533 511.68794881 69.98553849 510.1004635 68.20703125 508.5234375 C57.33074162 498.78218998 47.36857371 488.19882204 38.2578125 476.78515625 C36.14458461 474.17835437 33.97090057 471.64405943 31.765625 469.11572266 C-18.7442461 411.10422444 -47.96698998 337.36001898 -60 262 C-60.12745605 261.20754883 -60.25491211 260.41509766 -60.38623047 259.59863281 C-73.64511898 175.23821587 -53.52459129 74.05506121 -3.4375 4.5625 C-2.29819782 3.03676785 -1.15505285 1.51384311 0 0 Z " fill="#4A9CBC" transform="translate(279,301)"/>
<path d="M0 0 C1.32 0 2.64 0 4 0 C4.01401855 1.39230835 4.01401855 1.39230835 4.02832031 2.81274414 C4.61921194 49.94214464 12.34134036 95.29290206 28.0546875 139.7734375 C28.31056641 140.50088669 28.56644531 141.22833588 28.83007812 141.97782898 C30.07079982 145.49470592 31.33226719 149.00149681 32.63378906 152.49633789 C35.05347405 159.12193549 36.7315152 164.04395625 35 171 C34.73815621 172.35347187 34.48736166 173.70911554 34.24609375 175.06640625 C34.04705444 176.14015503 34.04705444 176.14015503 33.84399414 177.2355957 C26.69876079 218.13722879 37.00343586 259.73402434 44.63134766 299.79492188 C46.00275909 307.0010367 47.35250049 314.21111118 48.69921875 321.421875 C49.35829293 324.94349748 50.01783306 328.46503221 50.67767334 331.98651123 C51.09218628 334.1990403 51.50630706 336.41164288 51.91998291 338.62432861 C54.25957951 351.12090419 56.69193075 363.5887023 59.37287903 376.0171814 C61.51535913 386.06862773 62.18646051 395.72551563 62.18530273 406.00073242 C62.18750526 408.19273861 62.20575785 410.38425329 62.22460938 412.57617188 C62.22754127 413.98176913 62.22952743 415.38736875 62.23046875 416.79296875 C62.23457764 418.0564917 62.23868652 419.32001465 62.24291992 420.62182617 C62.00958759 423.86666988 61.39981403 426.08906645 60 429 C59.01 428.67 58.02 428.34 57 428 C56.83508057 426.74606445 56.67016113 425.49212891 56.50024414 424.20019531 C51.05460061 383.13122321 42.96762661 343.17629586 33.45706177 302.87506104 C28.78604373 283.02327654 24.73285459 263.21355474 22 243 C21.86029785 241.98196289 21.7205957 240.96392578 21.57666016 239.91503906 C18.68993731 217.94238774 17.44786106 193.18780552 23.6730957 171.67382812 C24.87828603 167.40437247 25.22048825 165.59213276 23.62109375 161.296875 C22.91725826 160.10012271 22.18826922 158.91788099 21.4375 157.75 C20.67999235 156.46588012 19.92877418 155.1780312 19.18359375 153.88671875 C18.81089355 153.24524902 18.43819336 152.6037793 18.05419922 151.94287109 C15.48426058 147.20651822 13.77968915 142.07382531 12 137 C-1.20674553 160.97758022 -11.12402591 183.38498886 -4 211 C-2.52870546 215.56225943 -0.87041874 220.04853091 0.78445435 224.54614258 C6.66317436 240.72570821 10.40186315 257.09493128 13.5625 274 C13.87056076 275.64384171 13.87056076 275.64384171 14.18484497 277.32089233 C26.43993257 343.33452698 26.43993257 343.33452698 20 362 C19.01 362.66 18.02 363.32 17 364 C13.61481912 361.37434449 13.39697815 358.8696066 12.859375 354.73046875 C12.77173386 354.08239761 12.68409271 353.43432648 12.59379578 352.76661682 C12.30059271 350.57497871 12.02565975 348.38140821 11.75 346.1875 C11.54292859 344.62191372 11.33464111 343.05648787 11.12524414 341.49121094 C9.94238468 332.58104875 8.83041145 323.66180484 7.71206665 314.74336243 C7.10818281 309.93854306 6.49800978 305.13452762 5.88806152 300.33047485 C5.44588135 296.81660402 5.01595243 293.3013848 4.58691406 289.78588867 C3.11481059 277.94145557 1.44197317 266.45564041 -2 255 C-2.25173981 254.1616864 -2.50347961 253.3233728 -2.7628479 252.45965576 C-4.82801266 245.64297237 -6.97055087 238.85139141 -9.125 232.0625 C-10.07870583 229.05356052 -11.03090692 226.04418513 -11.97848511 223.03330994 C-12.56250855 221.1777993 -13.14993471 219.32335467 -13.7414856 217.4702301 C-19.56943995 198.96298836 -20.29794227 181.16613421 -13 163 C-12.5091595 161.69448239 -12.01959535 160.38848425 -11.53125 159.08203125 C-8.99188558 152.4970211 -6.16116803 146.21229517 -2.77734375 140.01171875 C-1.93731812 138.44260742 -1.93731812 138.44260742 -1.08032227 136.84179688 C0.03162363 134.78505515 1.17450336 132.74465075 2.35180664 130.72460938 C5.2682781 125.3100632 6.48256725 121.88935436 4.98828125 115.80859375 C4.35603603 113.8622177 3.69515692 111.92480404 3 110 C2.57191343 108.53229679 2.15523558 107.06118175 1.75390625 105.5859375 C1.55829102 104.90112305 1.36267578 104.21630859 1.16113281 103.51074219 C-3.69084494 86.20034196 -6.50775859 67.97751234 -7 50 C-7.03996094 48.8965625 -7.07992187 47.793125 -7.12109375 46.65625 C-7.41151338 31.75943119 -6.80751783 13.61503566 0 0 Z " fill="#4A9CBC" transform="translate(911,414)"/>
<path d="M0 0 C-1.82348962 3.88815044 -3.8835039 7.38822501 -6.36230469 10.89379883 C-27.6121571 41.07992908 -35.71468333 79.48920791 -34 116 C-33.95891113 116.90008789 -33.91782227 117.80017578 -33.87548828 118.72753906 C-31.6682991 162.49052968 -21.33336527 205.2228047 -11.58987427 247.79083252 C24.71787886 406.43431928 24.71787886 406.43431928 -10.70703125 469.015625 C-11.13371094 469.67046875 -11.56039062 470.3253125 -12 471 C-12.99 470.67 -13.98 470.34 -15 470 C-14.38074963 464.04566956 -13.18286178 458.47556197 -11.6875 452.6875 C-9.57863919 444.18432694 -8.0276661 435.66588303 -6.75 427 C-6.58717529 425.90389404 -6.42435059 424.80778809 -6.2565918 423.6784668 C-2.00648289 393.71553756 -3.14914044 362.93815511 -7 333 C-7.08767639 332.31321167 -7.17535278 331.62642334 -7.26568604 330.91882324 C-11.55685809 297.72412709 -19.21330378 265.13141788 -26.44287109 232.48339844 C-35.04403853 193.63658867 -42.96207454 154.93418206 -44 115 C-44.03287109 113.9169458 -44.03287109 113.9169458 -44.06640625 112.81201172 C-45.03420259 77.14065164 -40.7289848 36.82484437 -15.55712891 9.4296875 C-5.13692794 -1.54107838 -5.13692794 -1.54107838 0 0 Z " fill="#4A9CBD" transform="translate(814,286)"/>
<path d="M0 0 C1 3 1 3 0.1105957 4.875 C-0.36289307 5.57625 -0.83638184 6.2775 -1.32421875 7 C-2.11626709 8.1921814 -2.11626709 8.1921814 -2.92431641 9.40844727 C-3.50616699 10.26365967 -4.08801758 11.11887207 -4.6875 12 C-5.89816107 13.82093308 -7.10777279 15.64256422 -8.31640625 17.46484375 C-8.93402832 18.39022949 -9.55165039 19.31561523 -10.18798828 20.26904297 C-63.02762706 99.90582542 -87.3365569 187.45785011 -74.50390625 317.8359375 C-68.81622978 345.85514693 -60.10264914 373.10397987 -48 399 C-46.65000694 401.90935708 -45.31995199 404.82691124 -44 407.75 C-43.69690918 408.39404785 -43.39381836 409.0380957 -43.08154297 409.70166016 C-41.31475903 413.62219833 -40.47712553 416.70756539 -41 421 C-42.35183962 423.50761089 -43.94778336 424.94778336 -46 427 C-46.66 427 -47.32 427 -48 427 C-94.93823032 337.0735458 -103.54204012 232.77094927 -73.8359375 135.7578125 C-61.53116869 96.68984324 -43.42704479 58.39307731 -18.22265625 25.93359375 C-14.95818189 21.62494657 -11.93268059 17.15994853 -8.8918457 12.69189453 C-5.9837314 8.4191661 -3.01805182 4.19596053 0 0 Z " fill="#4A9CBC" transform="translate(345,260)"/>
<path d="M0 0 C-0.125 2.1875 -0.125 2.1875 -1 5 C-2.46271238 6.18301525 -3.92624918 7.36504237 -5.39599609 8.53930664 C-8.10615297 11.00732317 -9.86674561 14.00811555 -11.75 17.125 C-12.13542969 17.74503906 -12.52085937 18.36507812 -12.91796875 19.00390625 C-13.95086501 20.66583275 -14.9758436 22.33267338 -16 24 C-16.66 24.99 -17.32 25.98 -18 27 C-19.32 27 -20.64 27 -22 27 C-22.61536714 18.84638541 -20.78334967 11.42566113 -15.5625 5 C-14.716875 4.34 -13.87125 3.68 -13 3 C-12.236875 2.401875 -11.47375 1.80375 -10.6875 1.1875 C-6.95044728 -0.46375585 -4.06512527 -0.20670128 0 0 Z " fill="#4A9DBD" transform="translate(913,196)"/>
<path d="M0 0 C0.33 0.99 0.66 1.98 1 3 C-0.39949349 5.50973885 -1.82628407 7.82169398 -3.4375 10.1875 C-3.87126953 10.84169922 -4.30503906 11.49589844 -4.75195312 12.16992188 C-5.82545983 13.78608033 -6.9115597 15.39386099 -8 17 C-8.66 16.67 -9.32 16.34 -10 16 C-8.55797524 11.84848662 -6.4989562 8.70021555 -3.875 5.1875 C-3.15054687 4.21167969 -2.42609375 3.23585938 -1.6796875 2.23046875 C-0.84824219 1.12638672 -0.84824219 1.12638672 0 0 Z " fill="#44A4C1" transform="translate(345,260)"/>
</svg>
